<?xml version="1.0" encoding="utf-8"?>
<!-- Generator: Adobe Illustrator 24.2.0, SVG Export Plug-In . SVG Version: 6.00 Build 0)  -->
<svg version="1.1" id="Layer_1" xmlns="http://www.w3.org/2000/svg" xmlns:xlink="http://www.w3.org/1999/xlink" x="0px" y="0px"
	 viewBox="0 0 1000 1000" style="enable-background:new 0 0 1000 1000;" xml:space="preserve">
<style type="text/css">
	.st0{fill-rule:evenodd;clip-rule:evenodd;fill:#3465B0;}
</style>
<path id="path0" class="st0" d="M656.3,380.7c3-7.3,11.9-11.4,19.3-8.6c5.6,2.2,9.9,7.8,9.9,13.9v40.8h40.6c3.5-0.2,7.1,0.5,9.7,3
	c2.3,1.8,3.6,4.5,4.6,7.1c20.8,51.4,41.6,102.9,62.4,154.2c20-49.7,40-99.4,59.8-149.1c1.5-3.5,2.6-7.3,5.6-9.9
	c5.9-5.3,16.2-5,21.8,0.8c4,3.8,5.4,9.9,3.3,15c-22.9,55.6-45.9,111.1-68.8,166.7c-4.5,10.7-17.3,16.3-28.4,13.2
	c-5.4-1.5-10-4.9-13-9.6c-1.6-2.6-2.8-5.6-4-8.4c-21.5-52-42.8-104-64.2-155.8h-29.2v122.8c0,9.1,4,19.8,13.4,22.8v27.9
	c-11.2,0.2-23.3-2.5-31.5-10.7c-6-5.8-9.4-13.9-10.9-22c-1.5-7.4-1.2-15-1.2-22.6V454h-21.6c-3.1,0-6.4-1.2-8.8-3.3
	c-5.4-5-6.1-14.5-0.8-19.8c2.5-2.6,6-4,9.6-3.8h21.6v-37.8C655.4,386.4,655.2,383.4,656.3,380.7L656.3,380.7z M105.8,373.6h50.7
	v67.2c18.4-10.4,39.7-14.8,60.7-12.4c24.9,2.6,48.4,15.4,64.6,34.3c13.9,16.2,22.5,36.8,23.8,58.1c3.1,45.5-24.8,87.3-68,101.9
	c-20.9,7-43.5,6.9-64.4-0.2c-22.7-7.9-41.9-23.6-54-44.4c-8.7-15-13.4-32-13.5-49.4C105.8,477,105.8,425.3,105.8,373.6L105.8,373.6z
	 M199.9,478.8c-12.7,1.6-24.3,8-32.4,18c-7.2,8.8-11.2,19.8-11.2,31.2c-0.1,11.2,3.6,22.1,10.6,30.9c6.8,8.8,16.4,15,27.2,17.7
	c11.2,2.8,23,1.5,33.3-3.5c11.1-5.3,19.8-14.5,24.4-25.9c4.8-11.9,4.9-25.2,0.3-37.1c-4.1-10.3-11.4-19-21-24.8
	C221.8,479.7,210.7,477.5,199.9,478.8z M326.7,373.6c16.8,0,33.7,0,50.4,0.2v134.1c0,9.7,0,19.6,0.5,29.4
	c1.3,18,15.4,35.2,33.7,37.8v50.7c-18.7-1.2-36.2-9.4-50.7-20.8c-11.9-9.2-21.6-21.5-26.9-35.8c-5.9-15.5-6.8-32.5-6.9-49
	L326.7,373.6L326.7,373.6z M425.9,426.3c16.8,0,33.7,0,50.4,0.2c0,32.9-0.2,65.5,0.2,98.4c0.3,6.9-0.2,14.2,2,21
	c3.5,11.2,11.2,21.3,22,26.4c10.6,5.1,23.4,4.5,33.7-1.2c8.5-4.5,15.1-12,18.5-21c3.6-8.8,3.1-18.3,3.5-27.4v-96.1
	c16.3,0,32.5,0,48.9-0.2v65.2c-0.2,17.7,0.7,35.5-1.3,53c-1,8.4-2.1,16.8-5.1,24.8c-5,13.5-14.2,25.4-25.3,34.7
	c-9.4,7.8-20,14.2-31.7,17.8c-13.6,4-27.9,4.8-41.9,2.5c-13.9-2.3-26.4-8.9-37.6-17.2c-12.2-9.1-22.5-21-28.4-35.2
	c-7.1-17-7.8-35.8-7.9-54.1C425.9,487.4,425.9,456.8,425.9,426.3L425.9,426.3z"/>
</svg>
