<?xml version="1.0" encoding="utf-8"?>
<!-- Generator: Adobe Illustrator 24.2.0, SVG Export Plug-In . SVG Version: 6.00 Build 0)  -->
<svg version="1.1" id="Layer_1" xmlns="http://www.w3.org/2000/svg" xmlns:xlink="http://www.w3.org/1999/xlink" x="0px" y="0px"
	 viewBox="0 0 1000 1000" style="enable-background:new 0 0 1000 1000;" xml:space="preserve">
<style type="text/css">
	.st0{fill-rule:evenodd;clip-rule:evenodd;fill:#010101;}
	.st1{fill-rule:evenodd;clip-rule:evenodd;fill:#FFCB05;}
</style>
<g>
	<g>
		<g>
			<g>
				<path class="st0" d="M70,613.6h454.4V386.4H70V613.6z"/>
				<g>
					<path class="st1" d="M106.9,431.8H166v27.3h-23.7V485h22.1v25.9h-22.1v30h26v27.3h-61.5V431.8z M250,431.8l-12.5,60.3l18.8,76
						h-32.8c-3.9-13.6-7.5-30.2-10.8-49.7c-0.9,8.6-2.1,17.8-3.7,27.5l-3.3,22.2h-34.5l12.9-76l-12.9-60.3h34.3
						c0.6,3.8,1.9,10,3.7,18.8c1.5,6.7,2.7,12.8,3.6,18.4l7.6-37.2H250L250,431.8z"/>
					<path class="st1" d="M332.7,431.8l-12.5,60.3l18.8,76h-32.8c-3.9-13.6-7.5-30.2-10.8-49.7c-0.9,8.6-2.1,17.8-3.7,27.5
						l-3.3,22.2h-34.5l12.9-76l-12.9-60.3h34.3c0.6,3.8,1.9,10,3.7,18.8c1.5,6.7,2.7,12.8,3.6,18.4l7.6-37.2H332.7z M340.9,431.8
						H400v27.3h-23.7V485h22.1v25.9h-22.1v30h26v27.3h-61.5V431.8z M487.9,431.8v136.3h-31.1l-18.4-62v62h-29.6V431.8h29.6
						l19.9,61.4v-61.4H487.9z"/>
				</g>
				<path class="st0" d="M354.1,510.3h22v-25.8h-22V510.3z"/>
			</g>
			<g>
				<path class="st0" d="M571.6,455.6h-7.2v-7.4h22.5v7.4h-7.3v33.7h-8V455.6z M602.5,451.3c0-2.3,1.7-3.9,3.7-3.9
					c2,0,3.6,1.6,3.6,3.9c0,2.3-1.5,3.9-3.6,3.9C604.1,455.2,602.5,453.5,602.5,451.3L602.5,451.3z M591.8,451.3
					c0-2.3,1.6-3.9,3.6-3.9c2.1,0,3.6,1.6,3.6,3.9c0,2.3-1.5,3.9-3.6,3.9C593.4,455.2,591.8,453.5,591.8,451.3z M611.4,480.2
					c0,3.2,0.1,6.3,0.2,9.1h-6.9l-0.4-3.2h-0.1c-1.4,2-3.8,3.7-6.9,3.7c-5.6,0-8-4.2-8-12.3v-18h8v17.2c0,3.9,0.7,6.4,3,6.4
					c1.3,0,2.2-1,2.6-2c0.3-0.6,0.5-1.5,0.5-2.6v-19h8L611.4,480.2L611.4,480.2z M618.3,468.4c0-3-0.1-6.2-0.2-9h6.9l0.4,4.3h0.2
					c1.3-3.2,3.7-4.8,5.9-4.8c0.8,0,1.2,0,1.7,0.1v7.9c-0.5-0.1-1-0.1-1.7-0.1c-1.7,0-3.9,1.2-4.9,4.3c-0.2,0.7-0.3,1.7-0.3,3v15.1
					h-8V468.4z M645.3,472.5h0.1c0.5-1.7,1-2.9,1.5-4.1l3.8-8.9h8.6l-7.2,12.5l7.6,17.3h-8.9l-4.3-12.3l-1.3,2.6v9.7h-8v-42.2h8
					L645.3,472.5L645.3,472.5z M663.4,489.3h8v-29.8h-8L663.4,489.3L663.4,489.3z M671.4,451.6c0.1,2.6-1.8,4.3-4.2,4.3
					c-2.2,0-4-1.8-4-4.3c-0.1-2.7,1.9-4.3,4.1-4.3C669.6,447.2,671.4,448.9,671.4,451.6z M684.3,459.5l2.9,15.5
					c0.3,1.8,0.5,3.4,0.8,5h0.1c0.2-1.5,0.5-3.2,0.7-4.9l2.5-15.6h7.8l-6.1,23c-1.5,5.6-3.4,11.4-6.6,15.2c-2.5,2.9-5.5,4.3-6.7,4.7
					l-2.4-6.9c1.4-0.5,2.7-1.4,4-2.5c1.1-1,1.9-2.3,2.5-3.5c0.2-0.5,0.4-0.9,0.4-1.3c0-0.4-0.1-0.7-0.2-1.1l-8.1-27.6H684.3z
					 M716,471.6c0-3.8-1-6.8-3.3-6.8c-2.6,0-3.6,3.8-3.7,6.8H716z M708.9,477.2c0.1,4.6,2.8,6.3,6.3,6.3c2.2,0,4.3-0.5,5.6-1
					l1.1,5.7c-2.1,0.8-5.2,1.3-8.2,1.3c-8.1,0-12.5-5.4-12.5-14.7c0-10,5.2-16,11.9-16c6.4,0,10.1,5.1,10.1,14.1
					c0,2.1-0.1,3.3-0.2,4.1H708.9L708.9,477.2z M737,447.7c-1.7,5.5-4.3,11-6.9,15.4l-4.1,0.5c1.8-5.1,3.4-10.6,4.1-15.4L737,447.7z
					 M737.1,468.4c0-3.3-0.2-6.2-0.2-9h6.9l0.4,3.4h0.1c1.6-2.4,4.1-3.9,7.2-3.9c5.6,0,7.9,4.5,7.9,11.2v19.1h-8v-18.7
					c0-2.6-0.6-4.9-2.9-4.9c-1.3,0-2.4,0.9-3,2.7c-0.2,0.6-0.4,1.6-0.4,2.7v18.2h-8L737.1,468.4L737.1,468.4z M766.1,489.3h8v-29.8
					h-8V489.3z M774.1,451.6c0.1,2.6-1.8,4.3-4.2,4.3c-2.2,0-4-1.8-3.9-4.3c-0.1-2.7,1.9-4.3,4.1-4.3
					C772.3,447.2,774.1,448.9,774.1,451.6z M780.9,468.4c0-3.3-0.2-6.2-0.2-9h6.9l0.4,3.4h0.1c1.6-2.4,4.1-3.9,7.2-3.9
					c5.6,0,7.9,4.5,7.9,11.2v19.1h-8v-18.7c0-2.6-0.6-4.9-2.9-4.9c-1.3,0-2.4,0.9-3,2.7c-0.2,0.6-0.4,1.6-0.4,2.7v18.2h-8
					C780.9,489.3,780.9,468.4,780.9,468.4z M573.4,542.8c0.4,0.1,1,0.1,1.4,0.1c3.8,0,7.2-3.8,7.2-15.1c0-8.4-2.2-13.5-7-13.5
					c-0.5,0-1.1,0-1.6,0.2V542.8z M565.4,508.6c2-0.5,4.9-0.8,8.1-0.8c5.2,0,8.7,1.2,11.4,3.7c3.5,3.2,5.3,8.6,5.3,16.6
					c0,8.3-2.1,14.2-5.7,17.4c-2.7,2.7-6.8,4-12.5,4c-2.5,0-5-0.2-6.6-0.4V508.6L565.4,508.6z M596.2,549.1h8v-29.8h-8V549.1z
					 M604.1,511.4c0.1,2.6-1.8,4.3-4.2,4.3c-2.2,0-4-1.8-4-4.3c-0.1-2.7,1.9-4.3,4.1-4.3C602.4,507.1,604.1,508.7,604.1,511.4z
					 M619.1,511.4c0,2.6-1.8,4.3-4.2,4.3c-2.2,0-4-1.8-3.9-4.3c-0.1-2.7,1.8-4.3,4.1-4.3C617.2,507.1,619.1,508.7,619.1,511.4z
					 M605.8,555c1.4-0.2,2.9-0.5,3.9-1.6c1.2-1.2,1.3-3.4,1.3-7.9v-26.2h8V547c0,6.6-1.4,9.8-3.9,11.8c-2.2,1.8-5.8,2.6-8.7,2.6
					C606.4,561.3,605.8,555,605.8,555z M625.7,549.1h8v-29.8h-8V549.1z M633.7,511.4c0.1,2.6-1.8,4.3-4.2,4.3c-2.2,0-4-1.8-4-4.3
					c-0.1-2.7,1.9-4.3,4.1-4.3C631.9,507.1,633.7,508.7,633.7,511.4z M649.8,511.3v8h5.8v5.7h-5.8v13.6c0,3.5,1.5,4.3,3,4.3
					c0.8,0,1.4-0.1,2.1-0.2l0.1,6.2c-1.1,0.3-2.7,0.5-4.9,0.5c-2.3,0-4.3-0.6-5.7-1.9c-1.6-1.6-2.5-3.8-2.5-8.5V525h-3.5v-5.7h3.5
					v-6.2L649.8,511.3L649.8,511.3z M672.8,534.6c-2.7,0.1-6.3,0.9-6.3,5.1c0,3,1.6,4.1,2.9,4.1c1.3,0,2.7-0.8,3.3-2.6
					c0.1-0.4,0.2-0.9,0.2-1.4V534.6z M673.9,549.1l-0.4-2.9h-0.1c-1.6,2.3-3.9,3.4-6.6,3.4c-4.5,0-7.8-3.8-7.8-9.1
					c0-7.8,6.9-11,13.6-11.1v-0.7c0-2.3-1.4-4-4.2-4c-2.4,0-4.3,0.6-6.1,1.7l-1.5-5.4c1.6-1,5.1-2.3,9.2-2.3
					c9.1,0,10.5,6.3,10.5,12.4v11.1c0,2.4,0.1,4.8,0.5,6.8L673.9,549.1z M686.2,549.1h8v-42.2h-8V549.1z M720.7,527.3
					c0.4,0.1,0.8,0.1,1.3,0.1c4,0,5.8-2.9,5.8-6.7c0-3.6-1.5-6.4-5.2-6.4c-0.7,0-1.5,0.1-1.9,0.3V527.3z M712.7,508.6
					c2.2-0.5,5.3-0.8,8.3-0.8c4.7,0,8.4,0.7,11.1,3.2c2.4,2.1,3.5,5.5,3.5,9c0,4.4-1.3,7.6-3.5,9.9c-2.6,2.7-6.7,3.9-10,3.9h-1.6
					v15.3h-8V508.6L712.7,508.6z M739.7,549.1h8v-42.2h-8V549.1z M766.8,534.6c-2.7,0.1-6.3,0.9-6.3,5.1c0,3,1.6,4.1,2.9,4.1
					c1.3,0,2.7-0.8,3.3-2.6c0.1-0.4,0.2-0.9,0.2-1.4V534.6z M767.9,549.1l-0.4-2.9h-0.1c-1.6,2.3-3.9,3.4-6.6,3.4
					c-4.5,0-7.8-3.8-7.8-9.1c0-7.8,6.9-11,13.6-11.1v-0.7c0-2.3-1.4-4-4.2-4c-2.4,0-4.3,0.6-6.1,1.7l-1.5-5.4c1.6-1,5.1-2.3,9.2-2.3
					c9.1,0,10.5,6.3,10.5,12.4v11.1c0,2.4,0.1,4.8,0.5,6.8C775.1,549.1,767.9,549.1,767.9,549.1z M790.2,511.3v8h5.8v5.7h-5.8v13.6
					c0,3.5,1.5,4.3,3,4.3c0.8,0,1.4-0.1,2.1-0.2l0.1,6.2c-1.1,0.3-2.7,0.5-4.9,0.5c-2.3,0-4.3-0.6-5.7-1.9c-1.6-1.6-2.5-3.8-2.5-8.5
					V525h-3.5v-5.7h3.5v-6.2L790.2,511.3L790.2,511.3z M802.3,549.1V525h-4v-5.7h4v-1.2c0-3.4,0.7-6.5,3-8.9
					c1.8-1.8,4.3-2.7,7.1-2.7c2.1,0,3.6,0.3,4.8,0.7l-0.9,6.2c-0.6-0.2-1.5-0.4-2.4-0.4c-2.7,0-3.6,2.3-3.6,4.9v1.4h5.2v5.7h-5.2
					v24.1H802.3L802.3,549.1z M825.9,534.1c0,5.1,0.8,9.4,3.6,9.4c2.6,0,3.2-5,3.2-9.4c0-4.1-0.7-9.3-3.3-9.3
					C826.5,524.9,825.9,530,825.9,534.1 M840.7,534.1c0,12.4-6.9,15.5-11.4,15.5c-7.1,0-11.4-5.6-11.4-15.3
					c0-10.7,5.6-15.5,11.5-15.5C836.5,518.8,840.7,524.7,840.7,534.1 M846.4,528.3c0-3-0.1-6.2-0.2-9h6.9l0.4,4.3h0.2
					c1.3-3.2,3.7-4.8,5.9-4.8c0.8,0,1.2,0,1.7,0.1v7.9c-0.5-0.1-1-0.1-1.7-0.1c-1.7,0-3.9,1.2-4.9,4.3c-0.2,0.7-0.3,1.7-0.3,3v15.1
					h-8L846.4,528.3L846.4,528.3z M865.5,528.3c0-3.3-0.2-6.2-0.2-9h6.9l0.4,3.5h0.1c1.5-2.3,4-4,7.1-4c3.3,0,5.5,1.5,6.5,4h0.1
					c0.7-1.2,1.8-2.3,3-3c1.2-0.7,2.7-1,4.2-1c5.3,0,7.7,4.2,7.7,11.4v18.9h-7.9v-17.6c0-3.4-0.4-6.2-2.8-6.2c-1.4,0-2.4,1-3,2.7
					c-0.1,0.4-0.2,1.3-0.2,2.1v18.9h-7.9v-18.7c0-2.1-0.2-5-2.7-5c-1.2,0-2.4,0.9-3,2.7c-0.2,0.6-0.3,1.4-0.3,2.3v18.8h-7.9
					L865.5,528.3L865.5,528.3z M929.8,540c0,3.2,0.1,6.3,0.2,9.1h-6.9l-0.4-3.2h-0.1c-1.4,2-3.8,3.7-6.9,3.7c-5.6,0-8-4.2-8-12.3
					v-18h8v17.2c0,3.9,0.7,6.4,3,6.4c1.3,0,2.2-1,2.6-2c0.3-0.6,0.5-1.5,0.5-2.6v-19h8L929.8,540L929.8,540z"/>
			</g>
		</g>
	</g>
</g>
</svg>
